<?xml version="1.0" standalone="no"?>
<!DOCTYPE svg PUBLIC "-//W3C//DTD SVG 20010904//EN"
 "http://www.w3.org/TR/2001/REC-SVG-20010904/DTD/svg10.dtd">
<svg version="1.0" xmlns="http://www.w3.org/2000/svg"
 width="1024.000000pt" height="1024.000000pt" viewBox="0 0 1024.000000 1024.000000"
 preserveAspectRatio="xMidYMid meet">
<metadata>
Created by potrace 1.11, written by Peter Selinger 2001-2013
</metadata>
<g transform="translate(0.000000,1024.000000) scale(0.100000,-0.100000)"
fill="#000000" stroke="none">
<path d="M177 10193 c14 -27 40 -75 58 -108 18 -33 45 -82 60 -110 16 -27 40
-72 54 -100 14 -27 28 -52 31 -55 3 -3 14 -23 25 -45 11 -22 22 -42 25 -45 3
-3 17 -27 31 -55 14 -27 38 -71 53 -97 14 -27 38 -69 53 -95 39 -71 80 -148
131 -243 24 -47 48 -90 53 -95 4 -6 21 -35 37 -65 16 -30 44 -82 62 -115 18
-33 49 -89 68 -125 20 -36 46 -82 59 -102 13 -21 20 -38 16 -38 -5 0 -3 -4 2
-8 6 -4 26 -36 44 -72 19 -36 39 -68 45 -72 6 -4 7 -8 2 -8 -4 0 -1 -11 8 -25
9 -13 27 -44 40 -67 40 -72 127 -230 157 -285 16 -29 42 -77 58 -105 16 -29
45 -84 66 -123 20 -38 42 -73 48 -77 7 -4 9 -8 5 -8 -4 0 23 -53 59 -117 37
-65 80 -145 96 -178 17 -33 33 -62 37 -65 4 -3 13 -20 21 -37 8 -18 17 -33 21
-33 5 0 8 -9 8 -20 0 -11 3 -20 8 -20 4 0 13 -15 21 -32 8 -18 21 -41 29 -50
8 -10 11 -18 6 -18 -5 0 -4 -4 1 -8 6 -4 22 -29 35 -57 14 -27 27 -52 30 -55
3 -3 10 -14 16 -25 6 -11 30 -56 54 -100 24 -44 48 -89 54 -100 6 -11 17 -28
25 -37 8 -10 10 -18 5 -18 -5 0 -4 -4 1 -8 9 -6 31 -45 83 -147 9 -16 18 -32
21 -35 3 -3 26 -43 50 -90 24 -47 48 -90 53 -97 5 -7 26 -43 45 -80 19 -37 44
-82 54 -99 10 -17 15 -35 11 -39 -4 -5 -2 -6 3 -2 6 3 26 -28 45 -69 19 -40
38 -74 43 -74 4 0 7 -7 7 -15 0 -8 5 -15 11 -15 5 0 8 -4 5 -9 -3 -5 3 -20 14
-34 11 -14 20 -27 20 -30 0 -3 34 -66 75 -140 41 -75 75 -141 75 -146 0 -6 5
-11 10 -11 6 0 10 -4 10 -8 0 -5 31 -65 68 -133 96 -174 130 -236 164 -299 17
-30 38 -68 48 -85 26 -44 78 -142 113 -210 17 -33 34 -62 37 -65 5 -5 41 -71
73 -135 11 -22 22 -42 26 -45 3 -3 14 -21 23 -40 10 -19 40 -75 68 -125 28
-49 56 -102 61 -117 6 -16 15 -28 20 -28 5 0 9 -9 9 -20 0 -11 4 -20 8 -20 9
0 47 -71 44 -83 -1 -4 5 -10 13 -13 8 -4 15 -14 16 -23 0 -9 9 -29 19 -46 10
-16 30 -51 43 -76 14 -25 34 -61 45 -80 10 -19 38 -69 60 -111 23 -42 54 -98
70 -125 16 -26 35 -63 43 -80 7 -18 17 -33 21 -33 5 0 8 -9 8 -20 0 -11 4 -20
8 -20 5 0 14 -16 22 -35 8 -19 18 -35 22 -35 5 0 6 -4 3 -10 -3 -5 -2 -10 4
-10 5 0 11 -6 13 -12 2 -7 23 -50 47 -95 l44 -82 1232 0 1232 0 41 77 c23 42
58 106 78 142 20 36 49 90 66 120 195 357 233 425 240 428 4 2 8 12 8 22 0 10
4 22 10 25 5 3 17 23 27 43 9 20 22 40 27 44 6 4 7 8 3 8 -4 0 4 17 18 37 14
21 25 41 25 46 0 4 11 24 23 45 13 20 41 69 62 107 20 39 51 95 68 125 17 30
37 69 45 85 9 17 23 42 33 56 10 14 16 29 12 33 -3 3 -1 6 6 6 7 0 9 5 6 10
-3 6 -1 10 4 10 6 0 11 7 11 15 0 8 5 15 11 15 5 0 8 4 5 9 -4 5 -3 11 1 13 5
1 22 29 38 60 17 32 37 70 45 85 42 77 105 192 123 223 11 19 33 60 50 90 28
53 53 99 119 218 58 106 75 137 108 197 18 33 40 74 50 90 20 34 61 110 128
235 25 47 50 88 55 91 5 3 8 8 6 10 -2 5 41 92 50 99 3 3 16 25 28 50 24 48
55 105 146 266 31 56 57 105 57 110 0 4 6 15 14 23 8 9 16 23 18 31 2 8 6 17
9 20 3 3 28 46 54 95 27 50 62 113 77 140 16 28 32 58 35 68 3 9 9 17 14 17 5
0 9 9 9 19 0 11 4 22 9 26 6 3 20 27 33 53 13 26 25 49 28 52 3 3 21 34 39 70
19 36 39 68 45 72 6 4 7 8 3 8 -5 0 1 13 12 29 12 16 21 31 21 34 0 4 58 110
137 252 19 33 41 76 51 95 9 19 19 37 22 40 3 3 21 34 39 70 19 36 45 82 58
103 13 20 20 37 16 37 -5 0 1 7 11 15 11 8 16 15 12 15 -4 0 2 16 14 35 12 19
36 61 53 94 18 32 53 97 78 143 26 45 61 110 79 143 18 33 41 74 50 90 10 17
34 62 55 100 51 96 98 181 168 305 33 58 59 111 60 118 0 6 3 12 7 12 4 0 15
18 25 40 10 22 24 45 31 51 8 6 12 15 9 19 -3 4 2 13 10 20 8 7 15 21 15 30 0
10 4 20 8 22 5 2 27 37 49 78 42 79 102 188 140 255 12 22 31 56 41 75 10 19
34 62 52 95 18 33 40 74 48 90 9 17 20 33 25 36 5 3 8 9 7 13 -1 4 15 35 34
70 20 36 36 69 36 75 0 6 4 11 8 11 5 0 16 16 25 35 l17 35 -1388 -2 c-916 -2
-1387 -6 -1387 -13 -1 -5 -14 -35 -30 -65 -60 -115 -124 -245 -123 -254 0 -5
-4 -12 -9 -15 -7 -5 -119 -223 -290 -566 -30 -60 -58 -117 -63 -125 -50 -91
-294 -586 -293 -592 2 -4 -2 -8 -7 -8 -6 0 -10 -6 -10 -14 0 -8 -6 -21 -13
-28 -8 -7 -20 -30 -26 -51 -7 -20 -17 -37 -22 -37 -5 0 -9 -6 -9 -12 -1 -7
-32 -74 -70 -148 -75 -145 -100 -199 -97 -203 1 -1 -4 -9 -11 -17 -17 -20
-172 -332 -172 -347 0 -6 -4 -13 -9 -15 -5 -1 -22 -30 -38 -63 -16 -33 -73
-148 -128 -255 -54 -107 -99 -197 -100 -200 -1 -3 -26 -54 -57 -115 -31 -60
-103 -202 -160 -315 -56 -113 -106 -207 -109 -210 -3 -3 -9 -17 -13 -32 -3
-16 -11 -28 -16 -28 -6 0 -10 -4 -10 -10 0 -17 -34 -90 -42 -90 -5 0 -8 -4 -8
-10 0 -10 -15 -41 -129 -266 -39 -78 -71 -146 -71 -152 0 -14 -29 -25 -71 -26
l-36 -2 -159 316 c-87 173 -164 322 -170 330 -7 8 -13 20 -13 25 -1 6 -19 44
-40 85 -22 41 -41 80 -42 85 -2 6 -22 44 -44 85 -22 42 -105 206 -185 365 -80
160 -147 292 -150 295 -10 10 -170 337 -170 347 0 6 -3 13 -7 15 -7 3 -49 85
-269 520 -24 49 -43 89 -42 90 2 2 -7 18 -20 36 -13 17 -20 32 -16 32 3 0 2 6
-4 13 -16 20 -141 267 -135 267 3 0 -1 8 -9 18 -8 9 -91 170 -185 357 -218
434 -286 566 -298 585 -5 8 -10 17 -11 20 -3 19 -28 68 -41 82 -9 10 -13 18
-9 18 7 0 -33 80 -45 90 -3 3 -12 22 -20 43 -7 20 -17 37 -21 37 -4 0 -8 8 -8
19 0 10 -7 24 -15 31 -8 6 -14 15 -13 18 1 4 -5 19 -12 35 l-13 27 -1383 0
-1384 0 27 -47z"/>
<path d="M3940 2460 l-46 -5 1 -1225 0 -1225 1230 -3 1230 -2 0 1234 c0 901
-3 1232 -11 1225 -6 -5 -14 -6 -17 -3 -5 6 -129 9 -152 4 -5 -1 -14 -2 -20 -1
-14 3 -288 3 -300 1 -5 -1 -14 -2 -20 -1 -14 3 -288 3 -300 1 -5 -1 -14 -2
-20 -1 -14 3 -288 3 -300 1 -5 -1 -14 -2 -20 -1 -13 2 -478 2 -485 0 -3 -1 -9
0 -15 1 -22 4 -457 1 -462 -4 -3 -2 -11 -2 -18 0 -18 7 -221 10 -275 4z"/>
</g>
</svg>
